<?xml version="1.0" standalone="no"?>
<!DOCTYPE svg PUBLIC "-//W3C//DTD SVG 20010904//EN"
 "http://www.w3.org/TR/2001/REC-SVG-20010904/DTD/svg10.dtd">
<svg version="1.0" xmlns="http://www.w3.org/2000/svg"
 width="768.000000pt" height="768.000000pt" viewBox="0 0 768.000000 768.000000"
 preserveAspectRatio="xMidYMid meet">
<metadata>
Created by potrace 1.14, written by Peter Selinger 2001-2017
</metadata>
<g transform="translate(0.000000,768.000000) scale(0.100000,-0.100000)"
fill="#000000" stroke="none">
<path d="M3532 6281 l-143 -36 51 -50 c27 -27 47 -52 42 -56 -4 -4 -50 -19
-103 -34 l-96 -27 -6 -141 c-4 -78 -7 -177 -7 -219 0 -119 0 -119 -126 -150
-60 -14 -252 -61 -426 -103 l-317 -77 -200 -343 c-111 -188 -201 -345 -201
-348 0 -5 -63 -103 -79 -123 -5 -6 -49 -25 -97 -43 -84 -30 -92 -35 -144 -99
-168 -204 -259 -299 -304 -316 -39 -15 -47 -23 -56 -54 -5 -20 -16 -58 -24
-84 l-14 -48 38 -59 c21 -33 51 -68 67 -78 15 -10 33 -23 38 -29 6 -6 60 -52
120 -101 l110 -91 28 -253 c15 -140 35 -316 44 -391 l16 -137 131 -103 c72
-56 406 -318 741 -582 473 -372 621 -484 659 -496 47 -16 54 -16 128 3 l78 19
0 39 c0 66 12 83 84 113 l66 28 108 -20 c97 -19 116 -19 207 -8 88 11 112 19
202 64 85 43 130 58 275 91 216 50 269 68 388 135 64 37 158 76 290 121 186
63 197 68 233 110 36 42 45 46 237 110 192 64 203 66 255 57 52 -9 57 -8 103
24 l49 32 18 109 c9 59 35 189 58 288 30 137 42 211 46 309 l6 130 75 22 c41
12 100 30 131 38 49 15 57 21 76 60 20 40 21 50 11 159 l-11 116 -103 43 -103
43 -62 152 -61 152 -89 73 -89 73 -64 200 c-36 110 -83 260 -106 333 l-42 132
-72 66 c-55 50 -117 90 -271 174 -258 140 -753 402 -921 487 l-131 67 -7 80
c-3 45 -6 138 -6 207 l0 127 -80 55 -80 55 -119 -30 -119 -30 -93 50 -94 49
-143 -36z m213 -91 c46 -31 99 -49 133 -44 12 2 64 13 113 24 68 14 96 17 111
9 11 -6 18 -13 15 -15 -3 -3 -42 -15 -88 -27 -77 -20 -84 -24 -87 -49 -3 -23
5 -32 54 -65 l57 -38 -66 -13 -66 -13 -68 45 c-37 25 -82 48 -100 52 -19 4
-72 -4 -141 -20 -90 -22 -114 -24 -141 -15 -18 6 -29 15 -24 19 4 5 44 16 88
25 44 10 86 22 93 28 24 19 13 51 -28 80 -22 16 -40 32 -40 36 0 5 24 12 53
18 56 10 67 7 132 -37z m445 -145 c0 -25 -3 -45 -8 -45 -4 0 -28 15 -54 34
l-48 33 43 10 c68 17 67 17 67 -32z m-785 -83 l30 -19 0 -366 c0 -202 -3 -367
-8 -367 -4 0 -21 7 -37 15 l-30 16 0 369 c0 204 3 370 8 370 4 0 20 -8 37 -18z
m265 -372 l0 -369 -42 -11 c-24 -6 -58 -15 -75 -20 l-33 -8 0 374 0 374 28 6
c15 3 41 10 57 14 71 19 65 51 65 -360z m150 338 l50 -33 0 -368 0 -368 -42
29 c-24 16 -50 31 -58 34 -13 4 -15 54 -15 371 0 202 3 367 8 367 4 0 30 -15
57 -32z m285 -394 l0 -369 -50 -11 c-27 -7 -62 -13 -77 -13 l-28 -1 0 370 0
370 23 5 c48 12 112 23 122 21 6 -2 10 -134 10 -372z m725 -169 c638 -336 700
-370 700 -393 0 -5 -39 -18 -87 -30 -49 -12 -205 -53 -348 -91 -143 -38 -361
-96 -485 -129 -124 -33 -285 -77 -358 -96 -74 -20 -142 -36 -152 -36 -10 0
-32 11 -48 25 -17 14 -33 25 -37 25 -3 0 -73 45 -155 100 -81 55 -151 100
-154 100 -3 0 -6 -12 -6 -26 l0 -25 -31 22 c-39 27 -111 49 -163 49 -51 0
-151 -27 -276 -73 l-95 -35 -377 237 c-208 130 -380 240 -384 244 -11 11 33
53 74 70 20 9 161 48 312 86 151 39 327 84 390 101 63 16 118 30 123 30 4 0 7
-70 6 -156 0 -104 3 -160 11 -169 6 -8 47 -32 90 -55 93 -47 117 -49 255 -15
l100 24 65 -43 c102 -67 98 -66 175 -51 39 7 88 16 109 19 111 18 116 22 116
101 0 75 6 95 29 95 37 0 41 19 41 208 l0 184 83 -45 c45 -25 260 -138 477
-252z m-2218 -371 c128 -81 277 -174 330 -207 53 -34 95 -64 92 -68 -2 -4 -17
-10 -33 -14 -34 -7 -56 -29 -46 -45 4 -6 1 -58 -6 -115 l-13 -105 -68 71 c-85
87 -132 109 -235 109 -63 0 -98 -7 -207 -44 -144 -49 -323 -113 -335 -121 -5
-2 -11 -59 -15 -127 -7 -121 -8 -123 -42 -160 -26 -30 -34 -47 -34 -77 0 -36
-4 -41 -37 -58 -30 -14 -39 -24 -41 -49 -2 -22 -11 -35 -27 -42 -43 -20 -44
-92 -1 -100 12 -3 16 4 16 27 0 23 6 33 28 43 20 10 28 22 30 46 3 26 10 35
38 47 31 13 34 18 34 55 0 23 7 55 16 71 l15 30 29 -39 c55 -77 309 -284 530
-434 157 -107 300 -192 460 -276 69 -35 126 -65 127 -66 0 0 -10 -93 -23 -206
-13 -113 -23 -211 -24 -218 0 -22 -63 18 -292 185 -119 87 -475 346 -792 577
-390 283 -573 422 -568 431 17 28 236 285 243 285 4 0 25 -20 46 -45 24 -29
45 -45 56 -43 14 2 80 121 236 418 119 228 220 421 225 428 6 11 12 10 31 -2
13 -9 129 -82 257 -162z m3056 -354 c111 -396 112 -397 206 -450 69 -39 133
-95 153 -134 29 -55 101 -274 94 -285 -7 -11 -114 -51 -138 -51 -7 0 -13 9
-13 19 0 11 -15 31 -33 45 -18 14 -39 37 -47 51 -7 14 -30 33 -51 42 -25 12
-42 30 -54 55 -19 43 -58 78 -88 78 -19 0 -19 6 -16 153 l4 152 -224 114
c-217 110 -224 113 -217 85 7 -28 22 -131 32 -229 3 -27 7 -59 9 -70 2 -11 4
-23 4 -27 1 -4 7 -5 14 -3 6 2 32 9 56 15 l43 11 -5 42 c-7 52 3 129 16 124 5
-1 10 -36 11 -77 1 -61 4 -74 16 -71 8 2 52 14 97 28 58 17 87 22 100 15 14
-8 9 -12 -28 -22 -24 -6 -104 -30 -176 -53 l-133 -41 0 -49 c0 -36 3 -46 13
-41 9 6 9 5 0 -8 -7 -8 -11 -17 -9 -19 5 -4 17 -79 20 -121 1 -15 5 -30 9 -34
3 -4 77 17 163 45 97 33 166 50 180 47 27 -7 67 -57 81 -101 7 -22 17 -31 36
-33 30 -4 67 -45 67 -73 0 -12 7 -19 18 -19 22 0 42 -19 42 -40 0 -11 -43 -28
-153 -63 -381 -120 -1404 -459 -1524 -504 -8 -3 -13 4 -13 20 0 13 -9 36 -21
51 -23 29 -23 74 1 87 8 4 29 14 45 21 25 11 30 19 33 53 1 22 -1 60 -6 85 -8
43 -9 44 -20 22 -7 -12 -14 -44 -15 -71 -2 -46 -4 -50 -44 -71 -39 -21 -42
-21 -67 -5 -16 11 -26 26 -26 42 0 15 -12 36 -30 53 -28 26 -30 33 -30 99 0
39 2 71 4 71 2 0 41 -17 87 -39 46 -21 95 -41 107 -44 24 -6 24 -5 17 56 -4
34 -9 69 -10 77 -9 51 -17 118 -17 136 1 18 -15 28 -105 65 -173 69 -523 270
-523 299 0 15 26 12 40 -5 7 -8 16 -15 20 -15 4 0 15 47 24 105 23 139 34 175
52 175 10 0 13 -6 9 -18 -13 -44 -34 -172 -36 -230 l-3 -64 50 -30 c47 -30 68
-42 162 -95 l42 -24 0 38 c1 157 45 423 71 423 12 0 12 7 -11 -128 -11 -65
-21 -169 -23 -232 l-2 -115 47 -23 c63 -31 157 -64 167 -58 7 4 5 33 -14 186
-6 52 -9 73 -19 153 -11 76 -17 125 -21 162 -3 36 -9 74 -20 142 -3 19 3 24
33 32 20 6 73 20 117 31 44 12 145 39 225 60 150 40 639 171 910 244 85 23
158 40 161 37 3 -3 38 -121 77 -261z m-2056 145 c3 -3 -5 -32 -18 -64 -25 -63
-28 -75 -39 -163 -7 -57 -20 -73 -32 -42 -9 25 17 154 44 217 24 54 33 64 45
52z m-315 -68 c-22 -47 -37 -60 -37 -32 0 32 42 92 57 81 1 -1 -8 -23 -20 -49z
m-210 -133 c32 -26 72 -60 90 -77 l32 -30 5 24 c3 13 8 41 11 62 3 20 11 37
17 37 7 0 9 -23 4 -70 -6 -67 -5 -71 22 -94 55 -49 217 -176 225 -176 4 0 7
19 7 43 0 64 11 118 24 114 7 -2 11 -42 11 -114 l0 -110 -85 66 c-183 141
-327 259 -395 323 -64 61 -43 62 32 2z m733 -7 c0 -25 -31 -77 -45 -77 -15 0
-9 24 15 71 12 22 30 25 30 6z m-1083 -39 c-3 -13 -15 -48 -26 -78 -23 -66
-38 -171 -47 -341 l-6 -127 73 -52 74 -51 7 53 c14 105 31 184 60 272 37 113
56 152 70 138 6 -6 2 -28 -15 -63 -53 -118 -103 -393 -77 -425 12 -14 231
-144 243 -144 4 0 7 31 7 68 0 112 34 335 57 377 20 35 21 -2 2 -99 -10 -55
-22 -159 -25 -232 l-7 -133 54 -24 c30 -14 71 -31 92 -38 36 -13 43 -20 31
-32 -12 -12 -198 72 -329 148 -180 105 -466 313 -675 491 -14 12 -54 46 -89
75 -70 59 -97 98 -40 59 19 -13 59 -44 89 -70 30 -25 60 -49 66 -53 8 -5 17
20 28 79 16 88 48 172 69 186 23 15 29 8 14 -16 -26 -38 -55 -141 -63 -215
l-6 -69 120 -96 c110 -87 146 -110 140 -88 -3 12 12 201 23 287 12 90 23 131
51 193 21 44 44 58 35 20z m-869 -99 c-2 -6 -8 -10 -13 -10 -5 0 -11 4 -13 10
-2 6 4 11 13 11 9 0 15 -5 13 -11z m-313 -473 c50 -36 138 -101 198 -143 l107
-77 0 -103 c0 -57 -3 -103 -6 -103 -15 0 -194 141 -348 276 -22 19 -42 34 -45
34 -3 0 -28 19 -54 41 -46 40 -48 43 -45 88 3 43 5 47 38 57 41 14 39 15 155
-70z m1844 18 c-6 -27 -14 -112 -17 -188 -5 -98 -11 -141 -19 -144 -25 -8 -10
302 19 377 6 16 12 21 19 14 6 -6 6 -26 -2 -59z m212 -110 c-14 -50 -14 -111
0 -189 l12 -62 51 14 c28 8 61 17 73 20 21 5 22 10 19 60 -4 54 8 113 23 113
5 0 6 -34 3 -75 -5 -87 -7 -85 84 -56 83 27 130 35 138 22 4 -6 -11 -15 -36
-21 -24 -6 -108 -31 -188 -55 -80 -24 -171 -51 -203 -59 -33 -8 -62 -17 -65
-21 -4 -3 -16 -59 -27 -123 -11 -65 -25 -115 -30 -112 -10 5 -9 38 5 115 22
126 25 112 -30 120 -28 4 -50 11 -50 16 0 5 6 9 13 9 66 1 156 9 170 15 13 6
17 14 13 29 -18 60 -18 183 -2 240 12 40 21 55 27 49 7 -7 7 -23 0 -49z m2649
-154 c33 -17 60 -35 60 -40 0 -5 -7 -7 -16 -3 -9 3 -19 2 -23 -4 -3 -5 -50
-22 -103 -37 -82 -23 -101 -25 -120 -15 -23 12 -23 13 12 26 66 25 85 38 100
70 8 18 19 33 23 33 4 0 34 -14 67 -30z m-4247 -89 l68 -51 -28 -11 c-65 -25
-106 -39 -119 -39 -18 0 -19 76 -1 83 10 4 10 7 0 18 -7 7 -13 26 -13 42 0 22
3 27 13 19 6 -5 43 -33 80 -61z m3857 -339 l0 -289 -62 -27 c-35 -14 -74 -26
-87 -26 -14 0 -32 -6 -40 -14 -9 -8 -28 -18 -44 -21 -21 -6 -26 -4 -22 7 7 17
-20 43 -35 33 -15 -9 -12 -33 6 -43 10 -6 -4 -12 -52 -21 -68 -12 -76 -11 -80
14 -1 9 6 14 19 12 16 -1 22 3 22 18 0 11 -7 20 -15 20 -21 0 -28 12 -22 41 3
15 11 24 23 24 12 0 19 7 19 20 0 13 -7 20 -20 20 -12 0 -20 7 -21 18 0 9 -2
27 -3 39 -2 19 1 22 22 16 20 -5 23 -2 20 13 -2 12 -11 18 -23 17 -17 -2 -20
4 -20 42 0 41 2 44 23 38 16 -4 22 -1 22 12 0 13 -6 16 -22 12 -23 -6 -23 -5
-22 84 1 90 4 101 27 106 7 1 80 25 162 53 83 29 162 52 178 51 15 0 27 5 27
10 0 5 5 9 10 9 6 0 10 -103 10 -288z m470 264 c0 -34 -19 -45 -122 -71 -97
-25 -111 -23 -104 19 2 16 20 25 84 42 58 16 82 19 86 11 4 -8 10 -6 18 6 18
24 38 21 38 -7z m-326 -16 c33 -14 46 -25 46 -39 0 -32 -16 -33 -74 -4 -37 18
-56 33 -56 45 0 24 27 23 84 -2z m-4133 -106 c20 -3 36 -11 35 -18 0 -6 4 -11
9 -11 6 0 9 6 9 12 -1 7 12 17 30 22 17 5 56 19 86 31 30 13 73 26 95 30 36 7
45 5 90 -28 57 -41 235 -173 250 -185 6 -4 32 -23 58 -41 l48 -33 -25 -16
c-20 -13 -25 -27 -30 -79 -13 -126 -17 -140 -32 -128 -15 13 -34 5 -34 -15 0
-21 19 -28 35 -15 12 10 15 9 15 -5 0 -9 13 -29 29 -44 16 -15 30 -36 33 -46
2 -14 12 -20 29 -21 15 -1 43 -13 63 -29 29 -22 34 -30 25 -42 -10 -11 -9 -18
4 -30 15 -15 18 -15 34 -1 17 14 28 8 155 -86 82 -61 138 -109 140 -121 2 -11
12 -21 23 -23 11 -1 39 -12 61 -24 36 -18 40 -24 31 -39 -9 -14 -7 -22 8 -39
26 -28 27 -48 4 -55 -25 -8 -24 -43 2 -64 l21 -16 -26 -28 c-26 -28 -26 -57 0
-57 22 0 17 -36 -7 -52 -16 -10 -20 -20 -15 -36 4 -12 14 -22 22 -22 22 0 17
-37 -6 -43 -28 -7 -27 -53 1 -68 l21 -11 -21 -22 c-25 -27 -27 -62 -4 -75 14
-8 15 -12 4 -25 -17 -21 -23 -20 -55 5 -24 19 -25 23 -13 38 31 37 -14 76 -57
48 -21 -14 -25 -13 -54 10 l-32 25 21 17 c39 31 2 84 -42 61 -10 -6 -19 -17
-19 -25 0 -22 -4 -20 -72 35 -34 28 -66 50 -70 50 -4 0 -8 9 -8 20 0 19 -32
45 -43 34 -12 -12 -76 48 -79 74 -2 23 -8 27 -33 27 -16 0 -45 10 -62 23 -28
20 -31 26 -20 42 9 16 9 23 -5 37 -14 14 -22 15 -43 5 -23 -11 -31 -9 -62 15
-31 24 -33 28 -18 39 23 17 15 48 -13 52 -15 2 -25 -3 -30 -17 -7 -18 -12 -16
-71 30 -35 27 -78 61 -96 77 -18 15 -52 40 -74 56 -23 17 -41 38 -41 48 0 10
-6 19 -12 20 -7 0 -18 2 -24 2 -6 1 -29 14 -51 29 -31 22 -40 33 -35 49 6 24
-15 40 -38 28 -12 -6 -28 1 -57 24 -38 30 -40 34 -26 48 18 19 10 38 -17 38
-12 0 -20 9 -24 28 -8 35 -67 514 -70 569 l-3 42 70 -50 c40 -28 87 -52 108
-55z m2167 -29 c7 -14 12 -44 12 -65 0 -33 3 -40 20 -40 30 0 61 -36 55 -63
-4 -16 1 -29 19 -47 15 -13 26 -33 26 -45 0 -20 -23 -31 -197 -94 -354 -130
-417 -150 -508 -166 -89 -16 -219 -13 -230 5 -5 8 40 409 47 416 2 2 27 -4 55
-13 l51 -16 -15 -35 c-11 -27 -12 -45 -5 -73 8 -31 6 -46 -10 -78 -12 -25 -17
-48 -12 -64 13 -53 61 -61 51 -9 -3 16 3 41 16 63 20 34 20 41 8 74 -14 40 -7
104 12 109 7 2 44 8 82 14 39 6 162 42 275 81 113 38 212 69 221 70 9 1 21
-10 27 -24z m1352 -221 c0 -217 -2 -245 -15 -234 -8 7 -22 10 -30 6 -18 -6
-20 -36 -3 -36 22 0 -6 -16 -65 -38 -74 -28 -87 -28 -82 -1 3 12 5 119 6 238
0 125 5 226 12 241 8 21 11 22 14 8 3 -10 11 -18 19 -18 9 0 14 7 12 18 -3 13
10 22 57 39 33 12 63 22 68 22 4 1 7 -110 7 -245z m590 211 l50 -25 0 -98 c0
-70 -10 -147 -34 -273 -18 -95 -37 -193 -41 -216 -5 -34 -11 -43 -26 -43 -26
0 -37 -30 -16 -45 23 -16 21 -41 -4 -66 -17 -17 -18 -23 -8 -36 11 -13 10 -18
-6 -29 -29 -22 -48 -18 -42 9 3 12 15 94 27 183 22 159 23 161 46 156 31 -6
34 27 3 35 -16 5 -19 11 -14 32 4 14 13 30 21 34 18 11 18 36 -1 43 -8 4 -15
18 -15 34 0 16 7 30 15 34 8 3 15 12 15 21 0 8 -7 15 -15 15 -10 0 -15 11 -15
35 0 24 5 35 15 35 8 0 15 7 15 15 0 9 -7 18 -15 21 -9 4 -15 19 -15 40 0 24
5 34 15 34 8 0 15 7 15 15 0 8 -7 15 -15 15 -9 0 -15 9 -15 25 0 31 -1 31 60
0z m-830 -79 c0 -25 -5 -35 -20 -39 -25 -6 -26 -27 -2 -34 14 -3 17 -12 14
-39 -3 -21 -10 -34 -19 -34 -9 0 -13 -7 -11 -17 2 -10 10 -17 16 -15 8 1 12
-11 12 -33 0 -23 -5 -35 -14 -35 -19 0 -27 -26 -12 -39 7 -6 16 -8 19 -4 4 3
7 -10 7 -29 0 -27 -5 -37 -20 -41 -26 -7 -26 -27 0 -34 25 -7 23 -51 -2 -64
-22 -12 -23 -38 -3 -45 21 -9 19 -40 -6 -63 -17 -15 -19 -23 -10 -39 8 -15 6
-40 -8 -99 -11 -43 -23 -95 -26 -115 -6 -33 -9 -36 -26 -27 -14 7 -17 14 -10
27 4 9 6 23 4 30 -6 17 -50 15 -60 -3 -7 -12 -15 -9 -51 13 -24 15 -42 35 -42
45 0 10 4 16 9 13 13 -8 34 21 27 39 -3 8 -12 15 -21 15 -23 0 -18 39 8 61
l22 20 -22 15 c-29 21 -30 60 -3 67 11 3 20 13 20 22 0 9 -9 19 -20 22 -24 6
-29 63 -6 63 8 0 18 5 21 10 8 13 -14 42 -26 34 -5 -3 -9 10 -9 29 0 26 5 36
20 40 11 3 20 10 20 17 0 7 -9 14 -20 17 -15 4 -20 14 -20 39 0 23 5 34 14 34
21 0 31 21 15 30 -7 5 -17 6 -21 4 -4 -3 -8 13 -8 35 0 32 3 39 16 34 10 -4
17 1 21 15 4 17 28 29 107 56 55 18 107 34 114 35 7 1 12 -12 12 -33z m-330
-413 l0 -338 -60 -18 c-44 -13 -66 -15 -80 -7 -24 13 -50 3 -50 -20 0 -13 -23
-25 -91 -49 -50 -18 -98 -30 -105 -27 -7 3 -20 -1 -28 -9 -8 -8 -17 -15 -20
-15 -2 0 -5 71 -5 158 -1 86 -5 236 -11 332 -7 134 -6 176 3 182 28 18 159 56
174 51 8 -3 19 0 24 8 7 12 206 86 237 88 9 1 12 -73 12 -336z m-2010 144 c52
-39 102 -76 110 -84 8 -7 36 -28 63 -44 26 -17 47 -38 47 -46 0 -8 -4 -13 -9
-11 -16 5 -289 203 -289 208 1 22 -5 31 -19 29 -27 -2 -36 0 -58 17 -17 13
-18 16 -5 24 17 11 24 7 160 -93z m1497 -97 c1 -52 -4 -88 -11 -92 -8 -5 -7
-13 2 -29 20 -32 22 -56 6 -70 -18 -15 -18 -38 1 -45 8 -4 15 -16 15 -29 0
-13 -7 -25 -15 -29 -8 -3 -15 -15 -15 -26 0 -11 7 -23 15 -26 8 -4 15 -16 15
-28 0 -18 -9 -26 -40 -36 -31 -10 -43 -11 -52 -2 -18 18 -48 14 -55 -5 -7 -19
-22 -33 -36 -33 -4 0 -6 115 -5 257 l3 256 80 27 c95 32 92 35 92 -90z m-1651
63 c14 -9 30 -27 35 -40 6 -15 16 -23 27 -21 9 1 38 -10 64 -27 40 -25 44 -31
31 -41 -20 -13 -11 -44 13 -44 9 0 18 9 21 19 4 18 13 14 76 -31 40 -27 82
-61 94 -74 12 -13 27 -24 33 -24 6 0 28 -12 50 -26 28 -19 40 -34 40 -51 0
-27 25 -41 49 -26 10 7 28 7 51 0 19 -5 55 -7 80 -4 24 3 53 1 62 -4 13 -7 23
-4 38 11 12 12 32 25 46 30 22 9 25 8 19 -9 -7 -22 16 -44 39 -35 21 8 21 40
0 52 -12 7 -1 13 43 25 74 21 73 21 73 -2 0 -11 -9 -23 -20 -26 -11 -3 -20
-14 -20 -24 0 -27 -150 -93 -191 -84 -23 4 -34 2 -41 -10 -11 -21 -58 -23 -58
-3 0 21 -31 28 -50 11 -21 -19 -41 -19 -66 0 -10 8 -27 15 -37 15 -9 0 -33 10
-51 22 -29 19 -34 27 -29 49 4 20 0 27 -15 31 -11 3 -25 1 -30 -4 -7 -7 -26 1
-57 23 -28 20 -41 35 -33 38 33 10 30 51 -4 51 -11 0 -22 -8 -25 -20 -5 -17
-14 -12 -87 42 -44 33 -86 67 -92 74 -6 8 -14 14 -18 14 -19 0 -96 65 -96 82
0 17 -10 22 -37 19 -14 -2 -16 12 -7 47 7 25 -1 27 80 -25z m1370 -297 c-3
-133 -10 -263 -14 -290 -7 -49 -7 -49 -62 -68 -33 -11 -66 -16 -86 -12 -26 5
-34 2 -43 -14 -16 -29 -49 -35 -53 -9 -2 12 -11 23 -21 25 -27 5 -49 -18 -43
-44 6 -21 1 -25 -46 -39 -77 -22 -87 -20 -73 17 4 9 16 13 34 10 30 -4 45 15
34 44 -4 11 -15 15 -34 12 -27 -4 -29 -2 -29 29 0 30 2 33 19 23 15 -7 23 -6
35 6 9 8 16 19 16 24 0 15 -37 31 -54 24 -12 -5 -16 1 -16 24 0 27 3 31 26 29
17 -1 30 5 38 17 6 11 19 28 29 38 23 25 26 228 2 248 -8 7 -15 16 -15 21 0
14 41 21 55 9 19 -16 45 -5 45 18 0 24 156 86 194 76 18 -4 27 -1 36 15 28 53
33 8 26 -233z m1780 139 c-9 -13 -16 -35 -17 -47 0 -13 -8 -45 -18 -73 -17
-48 -20 -51 -87 -76 -39 -16 -79 -25 -92 -22 -16 4 -30 -1 -43 -16 -19 -20
-66 -31 -55 -12 8 13 -21 34 -39 27 -8 -3 -15 -15 -15 -26 0 -13 -7 -20 -20
-20 -11 0 -20 6 -20 13 0 19 30 170 35 175 2 2 39 10 82 16 43 7 86 16 96 19
41 16 50 16 62 1 15 -21 45 -12 45 14 0 13 13 25 38 35 57 23 67 22 48 -8z
m-2626 -53 c19 -6 47 -13 61 -16 22 -5 25 -10 21 -31 -4 -22 -1 -25 22 -25 19
0 26 5 26 19 0 11 -6 22 -12 24 -7 3 10 6 39 6 l51 1 -14 -30 c-15 -29 -18
-30 -80 -30 -60 0 -67 2 -94 31 -15 17 -32 29 -38 25 -5 -3 -31 9 -56 26 -34
22 -44 33 -35 39 8 5 26 0 44 -10 16 -10 46 -23 65 -29z m400 -1 c0 -5 -32
-19 -71 -31 -62 -19 -74 -20 -86 -7 -13 12 -5 16 59 29 94 19 98 20 98 9z
m1790 -13 c0 -12 -12 -33 -27 -45 -26 -21 -27 -24 -10 -37 9 -7 17 -23 17 -36
0 -13 -8 -29 -17 -36 -14 -10 -16 -17 -7 -31 7 -10 8 -31 3 -53 -4 -19 -10
-60 -13 -91 -10 -82 -32 -111 -103 -136 -53 -18 -61 -18 -69 -5 -14 22 -62 8
-66 -20 -2 -17 -19 -27 -85 -49 -45 -15 -90 -25 -100 -23 -10 3 -29 -4 -42
-15 -30 -26 -33 -26 -49 -1 -25 40 -85 12 -62 -29 6 -12 18 -21 28 -21 13 0
12 -5 -8 -20 -34 -27 -67 -35 -85 -20 -19 15 -52 4 -60 -21 -8 -26 -28 -24
-40 3 -6 13 -18 24 -28 26 -24 5 -49 -18 -44 -39 4 -13 -12 -22 -75 -43 -52
-18 -89 -25 -108 -21 -24 5 -32 2 -45 -19 -21 -32 -37 -33 -50 -3 -12 27 -47
34 -65 12 -10 -12 -10 -21 -2 -39 10 -23 8 -24 -50 -41 -33 -9 -62 -15 -64
-12 -10 9 10 38 25 36 31 -3 40 1 46 21 8 25 -10 50 -36 50 -11 0 -19 7 -19
15 0 8 6 15 14 15 16 0 46 26 46 41 0 5 -9 17 -20 26 -26 22 -25 37 2 55 21
14 22 17 9 42 -12 22 -13 33 -3 60 7 19 12 38 11 43 -1 4 -1 22 0 40 1 34 33
55 54 34 18 -18 48 -13 54 9 3 11 8 20 12 20 3 0 16 3 28 6 18 5 21 3 16 -15
-3 -14 0 -23 11 -27 20 -8 21 -50 1 -58 -18 -6 -19 -29 -4 -54 9 -14 8 -26 -5
-51 -11 -20 -14 -37 -9 -44 8 -11 9 -21 1 -86 -6 -50 63 -53 70 -3 3 17 20 26
89 47 47 15 91 24 98 21 7 -2 23 4 36 15 28 24 37 24 58 -2 15 -18 21 -20 39
-10 13 7 22 21 22 34 0 20 11 27 83 49 47 16 93 25 109 21 20 -4 29 0 37 16
15 27 47 27 54 1 6 -23 39 -27 55 -7 6 7 9 22 6 34 -5 17 0 22 24 28 17 3 33
13 36 22 4 9 9 13 13 10 9 -10 43 12 43 27 0 8 -7 19 -15 26 -20 16 -19 49 1
57 11 4 14 14 10 42 -5 31 32 213 45 225 7 6 154 54 167 55 6 1 12 -9 12 -21z
m425 -207 c10 -17 -12 -21 -25 -6 -10 12 -10 15 3 15 9 0 18 -4 22 -9z m-139
-40 c-3 -5 -16 -11 -28 -14 -22 -6 -22 -5 -4 8 22 17 40 20 32 6z m-126 -40
c0 -5 -9 -11 -20 -14 -11 -3 -20 -1 -20 3 0 5 8 11 18 13 9 3 18 5 20 6 1 0 2
-3 2 -8z m-90 -15 l33 -13 -49 -17 c-26 -9 -48 -16 -49 -16 -1 0 0 14 3 30 5
34 15 36 62 16z m-1900 -15 c0 -5 -14 -11 -31 -15 -25 -5 -30 -10 -27 -28 2
-15 11 -24 26 -26 33 -5 32 -52 -2 -52 -13 0 -26 -7 -30 -15 -9 -25 4 -45 30
-45 33 0 31 -26 -3 -42 -42 -20 -34 -55 15 -74 9 -4 -13 -33 -29 -37 -27 -7
-25 -51 2 -63 22 -10 22 -10 -5 -38 -31 -34 -31 -39 -9 -61 15 -16 15 -19 -1
-49 -9 -18 -14 -39 -11 -48 4 -9 0 -29 -8 -45 -8 -15 -17 -48 -21 -72 -3 -24
-7 -45 -8 -47 -2 -1 -15 0 -30 3 -31 6 -39 33 -10 33 43 0 56 49 20 74 l-22
16 22 20 c25 24 27 33 10 60 -9 14 -10 28 -2 52 6 18 12 58 13 88 1 30 4 64 6
75 2 11 4 88 4 172 l1 151 43 15 c41 14 57 14 57 -2z m1402 -56 c-1 -19 -20
-15 -25 5 -3 12 -13 20 -25 20 -24 0 -37 -16 -37 -44 0 -27 -149 -78 -183 -63
-19 9 -27 6 -48 -16 -28 -30 -53 -35 -50 -11 1 21 -27 39 -48 31 -18 -7 -22
-53 -4 -59 7 -3 -27 -17 -75 -33 -47 -16 -89 -27 -92 -24 -9 9 10 92 22 96 6
2 14 -5 18 -17 5 -16 13 -20 33 -18 23 3 27 8 26 34 -1 29 1 31 84 57 62 19
89 24 98 16 18 -15 54 -1 54 20 0 12 21 24 78 43 l77 26 49 -27 c26 -15 48
-31 48 -36z m-1689 4 c7 -26 47 -25 54 1 9 35 46 25 65 -17 14 -33 14 -40 2
-54 -16 -18 -18 -45 -4 -54 15 -9 12 -36 -6 -56 -15 -17 -15 -20 0 -43 20 -31
20 -52 1 -60 -18 -6 -20 -37 -3 -54 8 -8 9 -21 0 -49 -6 -21 -13 -60 -16 -88
-7 -70 -29 -164 -34 -143 -5 23 -48 34 -67 18 -34 -29 -5 -77 40 -66 14 4 25
3 25 -1 -1 -33 -65 -41 -96 -12 -18 17 -20 26 -13 72 14 97 18 201 19 419 0
182 2 217 14 212 8 -3 16 -14 19 -25z m737 -163 c0 -7 -13 -16 -30 -19 -37 -8
-41 -38 -7 -62 l22 -16 -22 -19 c-13 -10 -23 -23 -23 -29 0 -9 -31 -31 -43
-31 -3 0 -3 9 0 20 8 29 -41 50 -64 27 -14 -13 -14 -21 -5 -41 11 -24 9 -26
-31 -37 -23 -6 -57 -17 -75 -25 -37 -16 -62 -18 -62 -5 0 15 -30 21 -51 11
-10 -6 -19 -19 -19 -29 0 -11 -7 -21 -15 -25 -12 -4 -14 1 -9 32 3 20 8 59 12
86 7 49 7 49 62 67 30 10 72 19 92 19 20 0 41 6 45 13 14 24 41 28 48 7 7 -24
24 -30 54 -19 18 7 22 14 17 33 -5 21 -1 26 37 39 54 20 67 20 67 3z m-60
-280 c6 -8 22 -16 35 -18 18 -2 22 -7 16 -16 -7 -11 -16 -10 -50 7 -41 21 -54
41 -27 41 7 0 19 -6 26 -14z m-151 -50 c32 -18 39 -56 11 -56 -14 0 -20 7 -20
21 0 12 -8 28 -17 35 -23 17 -5 17 26 0z m-86 -25 c-3 -12 -11 -17 -19 -14
-17 6 -18 20 -1 26 22 9 25 7 20 -12z"/>
<path d="M2176 3932 c-7 -12 4 -52 15 -52 12 0 12 47 0 55 -5 3 -12 2 -15 -3z"/>
<path d="M1990 3864 c0 -15 25 -25 45 -18 26 10 16 31 -15 31 -17 0 -30 -6
-30 -13z"/>
<path d="M2180 3745 c0 -19 43 -40 64 -32 22 9 20 26 -2 20 -10 -2 -24 3 -31
11 -17 20 -31 20 -31 1z"/>
<path d="M2348 3664 c-5 -4 -8 -20 -8 -36 0 -31 19 -44 48 -33 16 7 15 8 -3
15 -11 4 -22 19 -25 34 -3 15 -8 24 -12 20z"/>
<path d="M2570 3555 c0 -15 4 -24 10 -20 6 3 10 12 10 20 0 8 -4 17 -10 20 -6
4 -10 -5 -10 -20z"/>
<path d="M2820 3365 c0 -8 9 -15 20 -15 13 0 24 -10 30 -26 6 -14 14 -22 20
-19 14 9 13 48 -2 63 -18 18 -68 15 -68 -3z"/>
<path d="M2953 3175 c2 -5 21 -10 42 -10 21 0 40 5 42 10 2 6 -16 10 -42 10
-26 0 -44 -4 -42 -10z"/>
<path d="M4818 4453 c-16 -2 -28 -8 -28 -12 0 -32 80 -345 94 -366 23 -35 61
-48 124 -42 68 7 131 44 177 104 l35 46 -22 24 c-26 28 -45 29 -53 4 -10 -34
-91 -99 -131 -107 -70 -13 -81 6 -122 206 -16 79 -33 145 -38 145 -5 1 -21 0
-36 -2z"/>
<path d="M4493 4410 c-19 -8 -20 -12 -11 -50 6 -24 7 -45 2 -49 -5 -5 -56 -21
-114 -36 -58 -15 -106 -28 -108 -29 -1 -2 3 -17 9 -35 8 -22 16 -30 28 -26
166 52 217 63 206 45 -3 -5 -16 -10 -29 -10 -12 0 -35 -13 -50 -29 -23 -24
-27 -36 -24 -72 2 -36 8 -47 35 -65 26 -18 40 -20 68 -14 49 11 43 -23 -16
-86 l-29 -30 34 -17 c35 -16 35 -16 61 15 60 71 74 130 50 214 -10 32 -19 75
-22 95 l-5 36 85 22 c89 24 88 23 72 78 -3 8 -27 5 -86 -13 -46 -15 -85 -22
-90 -17 -5 5 -10 24 -12 43 -3 37 -17 45 -54 30z m25 -249 c8 -4 12 -19 10
-32 -2 -19 -9 -24 -33 -24 -36 0 -47 31 -19 52 21 15 24 16 42 4z"/>
<path d="M5068 3946 c-67 -37 -72 -41 -63 -55 4 -7 17 -6 41 4 19 8 34 10 34
4 0 -5 -6 -12 -12 -14 -60 -21 -67 -25 -62 -39 4 -11 13 -12 37 -5 18 5 35 9
39 9 13 0 9 -35 -7 -56 -19 -25 -19 -34 3 -34 21 0 39 26 47 73 6 29 13 37 36
42 33 8 41 16 30 33 -6 10 -15 10 -36 2 -38 -14 -54 8 -23 31 11 9 18 21 14
28 -9 15 -11 14 -78 -23z"/>
<path d="M4763 3857 c-6 -13 -34 -49 -63 -80 -40 -44 -50 -61 -42 -69 9 -9 19
-5 40 15 15 15 31 27 34 27 3 0 11 -20 17 -45 8 -33 15 -43 26 -39 18 7 19 17
1 75 -14 45 -13 48 11 84 20 30 23 39 12 46 -21 13 -25 11 -36 -14z"/>
<path d="M4950 3855 c0 -34 -26 -95 -48 -111 -13 -10 -14 -15 -5 -25 10 -10
18 -8 38 11 41 39 64 142 33 148 -14 3 -18 -3 -18 -23z"/>
<path d="M4886 3862 c-9 -15 14 -62 31 -62 19 0 16 24 -5 51 -12 14 -21 18
-26 11z"/>
<path d="M5540 3840 c-27 -27 -15 -48 12 -24 15 15 23 16 38 6 23 -14 37 2 20
23 -17 21 -46 19 -70 -5z"/>
<path d="M4837 3834 c-9 -9 23 -54 39 -54 20 0 17 24 -4 43 -20 19 -26 20 -35
11z"/>
<path d="M4498 3783 c-28 -8 -48 -20 -48 -29 0 -16 28 -18 66 -4 15 6 29 9 31
6 8 -7 -36 -99 -59 -123 -11 -12 -17 -26 -13 -32 13 -22 35 -10 60 34 l27 45
43 -25 c35 -21 44 -23 54 -11 13 15 5 24 -47 50 -32 16 -33 19 -26 62 6 42 5
44 -17 43 -13 -1 -45 -8 -71 -16z"/>
<path d="M5747 3731 c-23 -46 -22 -60 4 -35 13 13 19 31 17 45 -3 23 -4 22
-21 -10z"/>
<path d="M5472 3658 c3 -7 20 -14 39 -16 40 -4 30 12 -14 22 -21 5 -28 3 -25
-6z"/>
<path d="M4136 3482 c-7 -12 22 -38 31 -28 4 3 0 14 -9 22 -9 10 -18 12 -22 6z"/>
<path d="M1465 3950 c-3 -5 -1 -10 4 -10 6 0 11 5 11 10 0 6 -2 10 -4 10 -3 0
-8 -4 -11 -10z"/>
<path d="M1575 3840 c3 -5 8 -10 11 -10 2 0 4 5 4 10 0 6 -5 10 -11 10 -5 0
-7 -4 -4 -10z"/>
<path d="M1690 3840 c0 -5 5 -10 10 -10 6 0 10 5 10 10 0 6 -4 10 -10 10 -5 0
-10 -4 -10 -10z"/>
<path d="M1690 3730 c0 -5 5 -10 10 -10 6 0 10 5 10 10 0 6 -4 10 -10 10 -5 0
-10 -4 -10 -10z"/>
<path d="M1800 3730 c0 -5 5 -10 10 -10 6 0 10 5 10 10 0 6 -4 10 -10 10 -5 0
-10 -4 -10 -10z"/>
<path d="M1800 3625 c0 -8 5 -15 10 -15 6 0 10 7 10 15 0 8 -4 15 -10 15 -5 0
-10 -7 -10 -15z"/>
<path d="M6170 3670 c0 -5 5 -10 10 -10 6 0 10 5 10 10 0 6 -4 10 -10 10 -5 0
-10 -4 -10 -10z"/>
<path d="M5590 3465 c0 -9 5 -15 11 -13 6 2 11 8 11 13 0 5 -5 11 -11 13 -6 2
-11 -4 -11 -13z"/>
<path d="M5702 3468 c6 -18 28 -21 28 -4 0 9 -7 16 -16 16 -9 0 -14 -5 -12
-12z"/>
<path d="M5820 3465 c0 -9 5 -15 11 -13 6 2 11 8 11 13 0 5 -5 11 -11 13 -6 2
-11 -4 -11 -13z"/>
<path d="M5470 3366 c0 -9 7 -16 16 -16 9 0 14 5 12 12 -6 18 -28 21 -28 4z"/>
<path d="M5585 3370 c-9 -15 4 -30 20 -23 8 3 15 9 15 13 0 12 -29 20 -35 10z"/>
<path d="M5704 3366 c-8 -22 3 -33 18 -18 9 9 9 15 0 24 -9 9 -13 7 -18 -6z"/>
<path d="M5812 3358 c5 -15 28 -18 29 -3 0 6 -7 12 -17 13 -10 3 -15 -1 -12
-10z"/>
<path d="M5580 3256 c0 -10 9 -16 21 -16 24 0 21 23 -4 28 -10 2 -17 -3 -17
-12z"/>
<path d="M5696 3261 c-7 -11 18 -33 27 -24 4 3 7 12 7 20 0 15 -26 18 -34 4z"/>
<path d="M5814 3259 c-10 -17 13 -36 27 -22 12 12 4 33 -11 33 -5 0 -12 -5
-16 -11z"/>
<path d="M5583 3154 c-7 -19 2 -28 22 -21 19 8 19 23 0 31 -9 3 -18 -1 -22
-10z"/>
<path d="M5703 3163 c-21 -7 -15 -33 7 -33 11 0 20 6 20 14 0 18 -11 25 -27
19z"/>
<path d="M5810 3146 c0 -8 4 -17 8 -20 13 -8 35 11 28 23 -10 16 -36 14 -36
-3z"/>
<path d="M5575 3050 c-4 -7 -3 -16 3 -22 14 -14 45 -2 40 15 -6 16 -34 21 -43
7z"/>
<path d="M5690 3040 c0 -13 7 -20 20 -20 13 0 20 7 20 20 0 13 -7 20 -20 20
-13 0 -20 -7 -20 -20z"/>
<path d="M5804 3049 c-3 -6 0 -17 8 -25 13 -13 16 -13 27 0 7 8 10 20 6 26 -8
13 -32 13 -41 -1z"/>
<path d="M1795 3420 c-8 -13 4 -32 16 -25 12 8 12 35 0 35 -6 0 -13 -4 -16
-10z"/>
<path d="M2022 3408 c5 -15 28 -18 29 -3 0 6 -7 12 -17 13 -10 3 -15 -1 -12
-10z"/>
<path d="M2140 3405 c0 -8 7 -15 15 -15 8 0 15 7 15 15 0 8 -7 15 -15 15 -8 0
-15 -7 -15 -15z"/>
<path d="M2255 3411 c-7 -12 12 -24 25 -16 11 7 4 25 -10 25 -5 0 -11 -4 -15
-9z"/>
<path d="M1790 3305 c0 -10 7 -15 18 -13 21 4 19 22 -2 26 -10 2 -16 -3 -16
-13z"/>
<path d="M1907 3313 c-13 -12 -7 -23 13 -23 11 0 20 7 20 15 0 15 -21 21 -33
8z"/>
<path d="M2020 3306 c0 -21 21 -31 30 -15 5 7 6 17 4 21 -9 14 -34 9 -34 -6z"/>
<path d="M2134 3309 c-10 -17 13 -36 27 -22 12 12 4 33 -11 33 -5 0 -12 -5
-16 -11z"/>
<path d="M2253 3305 c-7 -20 2 -29 21 -22 9 4 13 13 10 22 -8 19 -23 19 -31 0z"/>
<path d="M2371 3310 c-16 -9 -6 -30 15 -30 15 0 20 25 6 34 -4 2 -14 1 -21 -4z"/>
<path d="M1786 3205 c-6 -17 16 -31 33 -21 13 9 2 36 -14 36 -7 0 -16 -7 -19
-15z"/>
<path d="M1907 3214 c-14 -15 -6 -34 14 -34 14 0 19 5 17 17 -3 18 -20 27 -31
17z"/>
<path d="M2016 3201 c-3 -5 0 -14 8 -20 10 -8 16 -8 25 2 6 8 8 17 4 20 -9 10
-31 9 -37 -2z"/>
<path d="M2132 3193 c2 -10 10 -18 18 -18 8 0 16 8 18 18 2 12 -3 17 -18 17
-15 0 -20 -5 -18 -17z"/>
<path d="M2245 3200 c-8 -13 3 -30 20 -30 14 0 27 24 18 34 -10 9 -31 7 -38
-4z"/>
<path d="M2364 3199 c-10 -17 13 -36 27 -22 12 12 4 33 -11 33 -5 0 -12 -5
-16 -11z"/>
<path d="M2476 3195 c-7 -20 23 -33 34 -14 5 7 6 17 4 21 -9 13 -32 9 -38 -7z"/>
<path d="M1785 3100 c-4 -7 -3 -16 3 -22 14 -14 45 -2 40 15 -6 16 -34 21 -43
7z"/>
<path d="M1900 3091 c0 -15 6 -21 21 -21 25 0 22 33 -4 38 -12 2 -17 -3 -17
-17z"/>
<path d="M2015 3100 c-4 -7 -3 -16 3 -22 14 -14 45 -2 40 15 -6 16 -34 21 -43
7z"/>
<path d="M2133 3094 c-7 -18 17 -38 31 -24 11 11 1 40 -14 40 -6 0 -13 -7 -17
-16z"/>
<path d="M2253 3103 c-17 -6 -16 -30 1 -36 21 -8 40 17 24 30 -7 6 -19 8 -25
6z"/>
<path d="M2362 3083 c2 -10 10 -18 18 -18 8 0 16 8 18 18 2 12 -3 17 -18 17
-15 0 -20 -5 -18 -17z"/>
<path d="M2475 3090 c-4 -7 -3 -16 3 -22 14 -14 45 -2 40 15 -6 16 -34 21 -43
7z"/>
<path d="M1784 2996 c-7 -19 3 -36 21 -36 22 0 26 29 4 40 -15 8 -21 7 -25 -4z"/>
<path d="M1899 2994 c-9 -11 -9 -18 -1 -26 14 -14 42 -3 42 16 0 20 -27 27
-41 10z"/>
<path d="M2012 2983 c4 -22 43 -25 43 -3 0 8 -11 16 -23 18 -19 3 -23 0 -20
-15z"/>
<path d="M2125 2990 c-9 -15 4 -30 26 -30 12 0 19 7 19 20 0 21 -33 29 -45 10z"/>
<path d="M2240 2980 c0 -16 5 -21 23 -18 12 2 22 10 22 18 0 8 -10 16 -22 18
-18 3 -23 -2 -23 -18z"/>
<path d="M2354 2989 c-10 -17 23 -46 37 -32 7 7 9 19 6 27 -7 18 -33 21 -43 5z"/>
<path d="M1894 2885 c-4 -9 -2 -21 4 -27 15 -15 44 -1 40 19 -4 23 -36 29 -44
8z"/>
<path d="M2012 2888 c-8 -8 -9 -15 -1 -25 22 -26 55 -10 43 21 -7 19 -25 21
-42 4z"/>
<path d="M2124 2885 c-4 -9 -2 -21 4 -27 15 -15 44 -1 40 19 -4 23 -36 29 -44
8z"/>
<path d="M2243 2889 c-16 -16 -5 -39 17 -39 25 0 35 18 20 35 -15 18 -22 19
-37 4z"/>
<path d="M2350 2877 c0 -19 20 -36 36 -30 8 3 14 14 14 24 0 14 -7 19 -25 19
-14 0 -25 -6 -25 -13z"/>
<path d="M2464 2879 c-3 -6 1 -18 10 -27 15 -15 17 -15 32 0 19 19 11 38 -16
38 -10 0 -22 -5 -26 -11z"/>
<path d="M2007 2783 c-12 -12 -7 -31 10 -37 19 -8 48 17 39 33 -8 12 -39 15
-49 4z"/>
<path d="M2124 2775 c-4 -9 -2 -21 4 -27 15 -15 44 -1 40 19 -4 23 -36 29 -44
8z"/>
<path d="M2234 2775 c-8 -20 4 -35 26 -35 23 0 32 13 24 34 -8 20 -43 21 -50
1z"/>
<path d="M2357 2784 c-4 -4 -7 -16 -7 -26 0 -13 7 -18 26 -18 21 0 25 4 22 22
-3 23 -27 35 -41 22z"/>
<path d="M2473 2783 c-17 -6 -16 -28 0 -42 10 -8 19 -7 32 3 16 12 17 16 6 30
-14 17 -18 18 -38 9z"/>
<path d="M2593 2783 c-15 -5 -17 -39 -4 -47 16 -10 41 5 41 24 0 19 -17 30
-37 23z"/>
<path d="M2120 2674 c-11 -12 -10 -18 3 -31 8 -9 23 -13 31 -10 21 8 21 43 0
51 -21 8 -20 8 -34 -10z"/>
<path d="M2241 2681 c-18 -12 -9 -45 13 -49 17 -4 35 12 36 30 0 13 -36 27
-49 19z"/>
<path d="M2346 2671 c-4 -5 -3 -17 0 -26 10 -24 48 -15 52 13 3 18 -1 22 -22
22 -14 0 -27 -4 -30 -9z"/>
<path d="M2464 2665 c-4 -9 -2 -21 4 -27 16 -16 47 -5 47 17 0 26 -42 34 -51
10z"/>
<path d="M2576 2663 c-5 -11 -1 -22 9 -30 23 -16 47 -5 43 21 -4 27 -43 34
-52 9z"/>
<path d="M2697 2673 c-13 -12 -7 -41 10 -47 9 -4 23 0 31 8 13 12 13 18 2 30
-13 17 -32 21 -43 9z"/>
<path d="M2810 2665 c-11 -13 -11 -19 3 -32 21 -21 49 -9 45 19 -4 28 -30 35
-48 13z"/>
<path d="M2231 2562 c-18 -34 24 -57 49 -27 10 12 10 18 0 30 -17 20 -37 19
-49 -3z"/>
<path d="M2344 2566 c-10 -26 4 -48 28 -44 17 2 23 10 23 28 0 18 -6 26 -23
28 -13 2 -25 -3 -28 -12z"/>
<path d="M2461 2562 c-12 -22 3 -42 31 -42 24 0 34 26 18 45 -17 20 -37 19
-49 -3z"/>
<path d="M2580 2565 c-18 -21 -5 -47 22 -43 26 3 37 36 16 49 -18 12 -24 11
-38 -6z"/>
<path d="M2696 2565 c-20 -20 -10 -45 19 -45 29 0 39 25 19 45 -9 8 -17 15
-19 15 -2 0 -10 -7 -19 -15z"/>
<path d="M2804 2556 c-9 -23 13 -45 37 -39 14 4 19 12 17 27 -4 26 -45 35 -54
12z"/>
<path d="M2922 2558 c-7 -7 -8 -17 -1 -30 12 -22 32 -23 49 -3 23 28 -21 60
-48 33z"/>
<path d="M2456 2454 c-7 -19 10 -44 29 -44 19 0 36 25 29 44 -3 9 -16 16 -29
16 -13 0 -26 -7 -29 -16z"/>
<path d="M2574 2456 c-10 -26 4 -48 28 -44 17 2 23 10 23 28 0 18 -6 26 -23
28 -13 2 -25 -3 -28 -12z"/>
<path d="M2692 2461 c-23 -14 -10 -46 19 -49 30 -4 46 22 28 44 -13 16 -28 17
-47 5z"/>
<path d="M2813 2463 c-16 -6 -17 -35 -1 -51 15 -15 48 3 48 27 0 15 -23 35
-33 30 -1 0 -8 -3 -14 -6z"/>
<path d="M2927 2459 c-37 -21 -5 -70 32 -49 12 6 21 17 21 25 0 21 -32 35 -53
24z"/>
<path d="M3030 2437 c0 -27 20 -40 46 -30 26 10 13 48 -18 51 -24 3 -28 0 -28
-21z"/>
<path d="M2574 2353 c-17 -17 -15 -32 8 -46 23 -15 48 -1 48 27 0 29 -34 41
-56 19z"/>
<path d="M2684 2345 c-10 -25 4 -45 30 -45 25 0 44 30 31 50 -10 15 -55 12
-61 -5z"/>
<path d="M2796 2344 c-9 -22 12 -46 38 -42 15 2 21 10 21 28 0 20 -6 26 -26
28 -18 2 -29 -3 -33 -14z"/>
<path d="M2917 2354 c-13 -14 -7 -43 12 -53 27 -15 60 11 45 36 -12 19 -45 29
-57 17z"/>
<path d="M3032 2348 c-16 -16 -15 -23 3 -41 23 -24 57 -10 53 22 -3 29 -35 40
-56 19z"/>
<path d="M2681 2241 c-13 -24 8 -55 34 -50 28 6 42 34 26 53 -18 22 -48 20
-60 -3z"/>
<path d="M2799 2244 c-17 -21 0 -49 32 -49 27 0 37 28 19 50 -16 19 -34 19
-51 -1z"/>
<path d="M2922 2251 c-22 -14 -10 -56 17 -59 37 -6 52 26 25 52 -18 18 -24 19
-42 7z"/>
<path d="M3035 2246 c-27 -20 -15 -51 20 -51 23 0 31 5 33 22 4 29 -28 47 -53
29z"/>
<path d="M2797 2144 c-4 -4 -7 -18 -7 -30 0 -17 7 -25 26 -30 31 -8 47 6 42
37 -2 17 -10 25 -28 27 -14 2 -29 0 -33 -4z"/>
<path d="M2909 2134 c-17 -21 0 -49 31 -49 31 0 48 28 31 49 -8 9 -21 16 -31
16 -10 0 -23 -7 -31 -16z"/>
<path d="M3032 2141 c-8 -4 -12 -19 -10 -32 2 -19 9 -24 33 -24 24 0 31 5 33
24 4 23 -11 41 -33 41 -5 0 -16 -4 -23 -9z"/>
<path d="M3021 2026 c-9 -11 -10 -20 -1 -35 20 -37 74 -21 68 20 -4 29 -48 38
-67 15z"/>
<path d="M3826 3221 c-4 -5 -2 -12 4 -16 5 -3 10 -15 10 -26 0 -10 5 -19 10
-19 6 0 10 11 10 24 0 26 -24 53 -34 37z"/>
<path d="M4000 3183 c0 -9 -7 -25 -17 -35 -15 -17 -15 -18 5 -18 24 0 47 34
38 56 -7 19 -26 18 -26 -3z"/>
<path d="M3580 3081 c0 -25 24 -43 52 -39 28 4 27 22 -2 26 -12 2 -24 10 -27
18 -8 20 -23 17 -23 -5z"/>
<path d="M5355 3370 c-3 -6 1 -13 10 -16 19 -8 30 0 20 15 -8 14 -22 14 -30 1z"/>
<path d="M5241 3266 c-12 -14 -5 -26 16 -26 15 0 18 26 4 34 -5 3 -14 0 -20
-8z"/>
<path d="M5350 3254 c0 -9 7 -14 17 -12 25 5 28 28 4 28 -12 0 -21 -6 -21 -16z"/>
<path d="M5234 3159 c-8 -14 11 -33 25 -25 6 4 11 14 11 22 0 16 -26 19 -36 3z"/>
<path d="M5350 3150 c0 -15 5 -20 18 -18 9 2 17 10 17 18 0 8 -8 16 -17 18
-13 2 -18 -3 -18 -18z"/>
<path d="M5241 3061 c-15 -10 -8 -41 9 -41 15 0 25 29 14 40 -5 5 -15 5 -23 1z"/>
<path d="M5342 3043 c2 -10 12 -18 23 -18 11 0 21 8 23 18 3 13 -3 17 -23 17
-20 0 -26 -4 -23 -17z"/>
<path d="M5230 2940 c0 -13 7 -20 18 -20 24 0 32 8 25 26 -8 22 -43 17 -43 -6z"/>
<path d="M5920 2840 c-18 -11 -4 -40 20 -40 13 0 20 7 20 19 0 22 -21 33 -40
21z"/>
<path d="M5010 3259 c0 -24 23 -21 28 4 2 10 -3 17 -12 17 -10 0 -16 -9 -16
-21z"/>
<path d="M5004 3159 c-7 -12 15 -31 28 -23 4 3 8 12 8 20 0 17 -26 19 -36 3z"/>
<path d="M5007 3064 c-14 -15 -6 -34 14 -34 14 0 19 5 17 17 -3 18 -20 27 -31
17z"/>
<path d="M5000 2940 c0 -13 7 -20 20 -20 13 0 20 7 20 20 0 13 -7 20 -20 20
-13 0 -20 -7 -20 -20z"/>
<path d="M4994 2845 c-8 -19 3 -35 26 -35 22 0 33 23 17 39 -15 15 -37 14 -43
-4z"/>
<path d="M4997 2743 c-12 -11 -7 -33 8 -39 20 -8 45 13 38 32 -5 14 -34 19
-46 7z"/>
<path d="M4994 2635 c-7 -18 2 -45 15 -45 5 0 17 7 26 16 12 12 13 19 4 30
-15 18 -38 18 -45 -1z"/>
<path d="M4667 3174 c-14 -14 -7 -35 11 -32 9 2 17 10 17 17 0 16 -18 25 -28
15z"/>
<path d="M4775 3171 c-8 -15 3 -31 21 -31 9 0 14 7 12 17 -4 20 -24 28 -33 14z"/>
<path d="M4431 3066 c-8 -10 -8 -16 2 -24 17 -14 42 2 34 22 -8 20 -21 20 -36
2z"/>
<path d="M4551 3070 c-14 -8 -8 -40 7 -40 5 0 15 6 21 14 15 17 -8 39 -28 26z"/>
<path d="M4657 3063 c-3 -5 -2 -15 3 -22 10 -17 43 -6 38 12 -6 15 -34 22 -41
10z"/>
<path d="M4772 3053 c5 -26 38 -29 38 -4 0 15 -6 21 -21 21 -14 0 -19 -5 -17
-17z"/>
<path d="M4424 2959 c-3 -6 0 -17 8 -25 13 -13 16 -13 27 0 7 8 10 20 6 26 -8
13 -32 13 -41 -1z"/>
<path d="M4540 2952 c0 -26 10 -33 31 -21 22 12 14 39 -12 39 -12 0 -19 -7
-19 -18z"/>
<path d="M4654 2955 c-4 -9 -2 -21 4 -27 15 -15 44 -1 40 19 -4 23 -36 29 -44
8z"/>
<path d="M4777 2964 c-15 -15 -7 -45 11 -42 9 2 17 12 17 22 0 20 -16 31 -28
20z"/>
<path d="M4433 2863 c-7 -3 -13 -14 -13 -25 0 -14 6 -19 22 -16 13 2 24 10 26
19 3 18 -15 29 -35 22z"/>
<path d="M4545 2856 c-21 -15 -12 -36 16 -36 12 0 19 7 19 19 0 27 -13 33 -35
17z"/>
<path d="M4650 2841 c0 -22 21 -33 40 -21 18 11 4 40 -20 40 -13 0 -20 -7 -20
-19z"/>
<path d="M4764 2849 c-3 -6 1 -18 9 -27 13 -12 19 -13 31 -3 8 7 12 19 9 27
-6 17 -39 19 -49 3z"/>
<path d="M4417 2747 c-8 -21 8 -39 29 -35 27 5 25 42 -2 46 -12 2 -24 -3 -27
-11z"/>
<path d="M4534 2745 c-8 -19 3 -35 26 -35 22 0 33 23 17 39 -15 15 -37 14 -43
-4z"/>
<path d="M4653 2749 c-16 -16 -5 -39 18 -39 24 0 37 29 18 41 -18 11 -23 11
-36 -2z"/>
<path d="M4767 2753 c-13 -12 -7 -41 10 -47 9 -4 23 0 30 7 12 12 12 17 -2 31
-18 17 -28 20 -38 9z"/>
<path d="M4422 2648 c-7 -7 -12 -18 -12 -24 0 -15 35 -28 50 -19 16 10 12 42
-6 49 -20 8 -18 8 -32 -6z"/>
<path d="M4541 2650 c-18 -11 -9 -44 13 -48 21 -4 37 14 29 34 -6 17 -27 24
-42 14z"/>
<path d="M4644 2635 c-4 -9 -2 -21 4 -27 16 -16 47 -5 47 17 0 26 -42 34 -51
10z"/>
<path d="M4767 2643 c-4 -3 -7 -15 -7 -25 0 -21 45 -26 52 -5 11 28 -24 52
-45 30z"/>
<path d="M4417 2544 c-12 -13 -8 -42 8 -48 25 -9 46 5 43 28 -3 21 -37 34 -51
20z"/>
<path d="M4530 2535 c-10 -12 -10 -18 0 -30 7 -8 18 -15 25 -15 7 0 18 7 25
15 10 12 10 18 0 30 -7 8 -18 15 -25 15 -7 0 -18 -7 -25 -15z"/>
<path d="M4194 2959 c-9 -15 12 -33 30 -26 9 4 16 13 16 22 0 17 -35 21 -46 4z"/>
<path d="M4194 2855 c-4 -9 -2 -21 4 -27 15 -15 44 -1 40 19 -4 23 -36 29 -44
8z"/>
<path d="M4187 2746 c-3 -8 0 -19 7 -25 18 -15 48 -3 44 18 -4 21 -44 27 -51
7z"/>
<path d="M4190 2644 c-11 -12 -10 -18 3 -32 16 -15 18 -15 33 0 19 18 12 48
-9 48 -8 0 -20 -7 -27 -16z"/>
<path d="M3845 2860 c-9 -15 3 -30 25 -30 18 0 34 23 23 34 -10 10 -41 7 -48
-4z"/>
<path d="M3964 2855 c-8 -19 12 -36 33 -28 19 7 12 37 -10 41 -9 2 -20 -4 -23
-13z"/>
<path d="M3737 2764 c-4 -4 -7 -16 -7 -26 0 -14 6 -19 23 -16 14 2 22 10 22
23 0 20 -25 32 -38 19z"/>
<path d="M3844 2755 c-8 -19 3 -35 26 -35 22 0 33 23 17 39 -15 15 -37 14 -43
-4z"/>
<path d="M3961 2756 c-9 -11 -8 -18 5 -30 12 -13 19 -14 30 -5 19 15 18 35 -2
43 -21 8 -20 8 -33 -8z"/>
<path d="M3730 2655 c-16 -19 -1 -47 24 -43 29 4 34 44 7 51 -11 3 -25 -1 -31
-8z"/>
<path d="M3842 2638 c3 -25 36 -37 48 -17 13 20 0 39 -27 39 -20 0 -24 -4 -21
-22z"/>
<path d="M3954 2645 c-4 -9 -2 -21 4 -27 16 -16 47 -5 47 17 0 26 -42 34 -51
10z"/>
<path d="M3727 2554 c-14 -15 -6 -43 14 -49 25 -8 42 6 37 31 -3 19 -38 31
-51 18z"/>
<path d="M3840 2545 c-10 -12 -10 -18 0 -30 7 -8 18 -15 25 -15 7 0 18 7 25
15 10 12 10 18 0 30 -7 8 -18 15 -25 15 -7 0 -18 -7 -25 -15z"/>
<path d="M3962 2551 c-23 -14 -10 -46 18 -46 16 0 26 6 28 19 3 16 -12 36 -28
36 -3 0 -11 -4 -18 -9z"/>
<path d="M3733 2453 c-18 -6 -16 -50 2 -57 23 -8 45 4 45 25 0 20 -28 39 -47
32z"/>
<path d="M3834 2435 c-10 -25 22 -53 44 -39 9 6 17 20 17 30 0 25 -52 33 -61
9z"/>
<path d="M3951 2432 c-8 -15 -7 -23 4 -32 23 -19 50 -8 50 20 0 32 -39 41 -54
12z"/>
<path d="M5463 2743 c-21 -8 -15 -40 8 -46 22 -6 35 13 25 38 -6 15 -12 17
-33 8z"/>
<path d="M5569 2734 c-10 -12 -9 -18 4 -31 13 -13 19 -14 31 -3 21 17 20 27
-3 39 -14 8 -22 7 -32 -5z"/>
<path d="M5682 2718 c2 -15 10 -23 23 -23 13 0 21 8 23 23 3 18 -1 22 -23 22
-22 0 -26 -4 -23 -22z"/>
<path d="M5224 2736 c-8 -21 3 -36 27 -36 15 0 20 6 17 22 -4 27 -35 37 -44
14z"/>
<path d="M5231 2641 c-17 -11 -10 -45 11 -49 9 -2 22 6 27 17 9 16 8 22 -7 30
-10 5 -24 6 -31 2z"/>
<path d="M5216 2524 c-7 -19 10 -44 30 -44 20 0 36 34 22 48 -17 17 -45 15
-52 -4z"/>
<path d="M5222 2428 c-16 -16 -15 -33 2 -47 30 -25 67 16 40 44 -19 18 -26 19
-42 3z"/>
<path d="M4174 2326 c-9 -22 15 -48 40 -44 15 2 21 10 21 28 0 20 -6 26 -28
28 -18 2 -29 -2 -33 -12z"/>
<path d="M4183 2233 c-17 -6 -16 -38 2 -53 19 -15 55 -3 55 19 0 31 -26 47
-57 34z"/>
<path d="M4170 2111 c-12 -23 12 -54 38 -49 21 4 36 32 29 52 -9 22 -54 20
-67 -3z"/>
<path d="M4401 2111 c-14 -26 8 -54 40 -49 16 2 25 10 27 27 6 40 -48 58 -67
22z"/>
<path d="M4754 2425 c-9 -23 3 -45 24 -45 11 0 25 7 32 15 16 19 -3 45 -32 45
-10 0 -21 -7 -24 -15z"/>
<path d="M3265 2344 c-18 -18 -16 -33 7 -47 35 -22 66 21 36 51 -16 16 -23 15
-43 -4z"/>
<path d="M3263 2244 c-18 -8 -16 -39 3 -55 21 -17 49 0 49 32 0 24 -24 34 -52
23z"/>
<path d="M3267 2139 c-39 -22 -4 -79 35 -58 10 5 18 18 18 29 0 25 -30 41 -53
29z"/>
<path d="M3250 2019 c-15 -27 5 -51 39 -47 19 2 27 10 29 27 6 41 -48 57 -68
20z"/>
<path d="M3257 1928 c-9 -5 -17 -17 -17 -27 0 -45 72 -56 78 -12 6 38 -27 59
-61 39z"/>
<path d="M3599 2124 c-17 -21 0 -49 31 -49 31 0 48 28 31 49 -8 9 -21 16 -31
16 -10 0 -23 -7 -31 -16z"/>
<path d="M3722 2131 c-8 -4 -12 -19 -10 -32 2 -19 9 -24 33 -24 24 0 31 5 33
24 4 23 -11 41 -33 41 -5 0 -16 -4 -23 -9z"/>
</g>
</svg>
