<svg width="244" height="260" viewBox="0 0 244 260" fill="#334155" xmlns="http://www.w3.org/2000/svg">
    <path d="M243.297 95.5388C243.234 79.1008 237.562 63.1799 227.223 50.4019C230.734 35.7969 229.637 20.4608 224.09 6.49984C222.996 3.81234 220.754 1.75765 217.984 0.898251C214.062 -0.445549 199.222 -2.96506 168.984 16.6322V16.6362C155.976 13.2026 142.562 11.5815 129.113 11.8198C115.644 11.5776 102.207 13.1987 89.1832 16.6362C58.1602 -3.41085 42.0313 -0.164842 38.7853 0.788158C36.0001 1.68269 33.7619 3.78035 32.6798 6.49905C27.1173 20.413 25.9805 35.706 29.4336 50.292C18.7536 63.003 13.0627 79.1631 13.4177 95.7611C13.4177 157.699 48.8626 176.402 81.3436 183.011C79.6756 187.089 78.5273 191.359 77.9296 195.722C77.871 196.187 77.871 196.66 77.9296 197.124V214.257C48.3636 216.722 42.0346 199.417 41.4176 197.456V197.46C41.273 197.003 41.1051 196.554 40.9097 196.113C35.1988 184.465 25.1477 175.515 12.9097 171.195C7.77695 169.48 2.22174 172.249 0.507738 177.382C-1.20706 182.515 1.56244 188.07 6.69524 189.788C13.4764 192.237 19.1332 197.073 22.6012 203.393C26.5231 216.104 42.5392 236.209 77.8162 233.967V250.096C77.8162 255.51 82.203 259.897 87.6171 259.897C93.0273 259.897 97.4178 255.51 97.4178 250.096V197.85C98.16 192.143 100.644 186.807 104.527 182.561C107.308 179.959 108.316 175.979 107.113 172.366C105.91 168.757 102.711 166.175 98.9296 165.761C64.7696 161.784 33.1875 150.531 33.1875 95.3696H33.1836C32.7266 81.9086 37.9258 68.8696 47.5196 59.4166C50.1212 56.6197 50.9805 52.6236 49.7618 49.0026C46.461 39.4167 46.2462 29.0376 49.1446 19.3226C61.1676 22.0374 72.4606 27.3304 82.2386 34.8346C84.7855 36.5182 87.9613 36.9518 90.8636 36.0104C103.309 32.2213 116.278 30.4635 129.282 30.8034C142.262 30.4635 155.216 32.2214 167.641 36.0104C170.543 36.9596 173.723 36.526 176.266 34.8346C185.684 27.6158 196.465 22.3776 207.961 19.4326C210.816 29.2568 210.562 39.7216 207.23 49.3936C206.117 52.6788 206.843 56.3116 209.136 58.9131C218.406 68.8115 223.656 81.8111 223.863 95.3701C223.863 150.417 190.656 161.843 158.121 165.761C154.133 166.206 150.824 169.046 149.785 172.921C148.746 176.796 150.188 180.91 153.418 183.292C156.891 185.925 160.922 193.315 160.922 205.69V250.042C160.922 255.456 165.309 259.843 170.719 259.843C176.133 259.843 180.52 255.456 180.52 250.042V205.69C180.621 197.889 179.196 190.147 176.321 182.897C202.641 177.3 243.298 159.995 243.298 95.5383L243.297 95.5388Z" fill="black" />
</svg>