<svg width="527" height="348" viewBox="0 0 527 348" fill="none" xmlns="http://www.w3.org/2000/svg">
<path d="M22.398 0C10.277 0 0 10.281 0 22.398V324.798C0 336.915 10.281 347.196 22.398 347.196H503.998C516.119 347.196 526.396 336.915 526.396 324.798V22.398C526.396 10.277 516.115 0 503.998 0H22.398ZM54.773 33.602H471.623L263.193 218.222L54.773 33.602ZM33.597 59.676L149.617 162.576L33.597 287.346V59.666V59.676ZM492.797 59.676V287.356L376.777 162.586L492.797 59.686V59.676ZM174.817 184.796L251.993 253.222L251.997 253.218C255.075 255.976 259.063 257.495 263.196 257.495C267.328 257.495 271.317 255.976 274.395 253.218L351.571 184.792L471.451 313.592H54.9509L174.831 184.792L174.817 184.796Z" fill="black"/>
</svg>
